<svg id="Layer_5" enable-background="new 0 0 64 64" height="512" viewBox="0 0 64 64" width="512" xmlns="http://www.w3.org/2000/svg"><g><path d="m12.5 57h39v2h-39z"/><path d="m45 33c.551 0 1-.449 1-1v-3h-2v3c0 .551.449 1 1 1z"/><path d="m53.224 13h1.776c1.103 0 2 .897 2 2v32h2v-33c0-1.654-1.346-3-3-3h-2.554z"/><path d="m48.586 25h-7.172l2 2h3.172z"/><path d="m18 43h3c.551 0 1-.449 1-1s-.449-1-1-1h-12v6h6.184c-.112-.314-.184-.648-.184-1 0-1.654 1.346-3 3-3z"/><path d="m55 47v-32h-1.997l-1.048 9.459-3.955 3.955v3.586c0 1.654-1.346 3-3 3s-3-1.346-3-3v-3.586l-3.955-3.955-1.053-9.459h-27.992v24h2.451l5.094-8.006c1.194-1.875 3.233-2.994 5.455-2.994 2.167 0 4.154 1.07 5.358 2.861l1.188-1.867c1.193-1.875 3.232-2.994 5.454-2.994s4.261 1.119 5.455 2.994l1.571 2.47-1.688 1.073-1.571-2.469c-.824-1.295-2.232-2.068-3.767-2.068s-2.943.773-3.767 2.068l-1.684 2.646 4.295 6.749-1.688 1.073-5.389-8.469c-.824-1.294-2.232-2.067-3.767-2.067s-2.943.773-3.767 2.068l-4.411 6.932h7.178c1.654 0 3 1.346 3 3s-1.346 3-3 3h-3c-.551 0-1 .449-1 1s.449 1 1 1h17c.551 0 1-.449 1-1s-.449-1-1-1h-4c-1.654 0-3-1.346-3-3v-2h2v2c0 .551.449 1 1 1h4c1.654 0 3 1.346 3 3 0 .352-.072.686-.184 1zm-40-23c-1.657 0-3-1.343-3-3s1.343-3 3-3 3 1.343 3 3-1.343 3-3 3zm23 10h2v4c0 .551.449 1 1 1 1.654 0 3 1.346 3 3 0 .551.449 1 1 1s1-.449 1-1v-5h2v5c0 1.654-1.346 3-3 3s-3-1.346-3-3c0-.551-.449-1-1-1-1.654 0-3-1.346-3-3z"/><path d="m52.883 55-.75 6h5.734l-.75-6z"/><path d="m51.876 7h-13.763l1.782 16h10.21zm-3.876 12c0 .552-.448 1-1 1h-4c-.552 0-1-.448-1-1v-8c0-.552.448-1 1-1h4c.552 0 1 .448 1 1z"/><path d="m60 49h-25-17-14c-.551 0-1 .449-1 1v2c0 .551.449 1 1 1h56c.551 0 1-.449 1-1v-2c0-.551-.449-1-1-1z"/><path d="m6.883 55-.75 6h5.734l-.75-6z"/><path d="m7 15c0-1.103.897-2 2-2h27.769l-.223-2h-28.546c-1.654 0-3 1.346-3 3v33h2z"/><path d="m36 3h18.001v2h-18.001z"/></g></svg>